<svg xmlns="http://www.w3.org/2000/svg" xmlns:xlink="http://www.w3.org/1999/xlink" width="32" height="32" viewBox="0 0 32 32">
    <defs>
        <path id="fiejtojoaa" d="M0 0H32V32H0z"/>
    </defs>
    <g fill="none" fill-rule="evenodd">
        <g>
            <mask id="e3ex0shgrb" fill="#fff">
                <use xlink:href="#fiejtojoaa"/>
            </mask>
            <g mask="url(#e3ex0shgrb)">
                <g>
                    <path fill="#3C77AE" fill-rule="nonzero" d="M2.856 32c-.05 0-.1-.008-.149-.023H.077v-2.265h2.288v-1.771c0-.271.22-.491.491-.492H19.43c.13 0 .256.051.349.144.093.092.145.217.145.348v1.771h1.922v2.265H19.58c-.049.015-.1.023-.15.023H2.856zm.555-5.693c-.578-.001-1.045-.47-1.046-1.047V6.767c0-.578.468-1.046 1.046-1.047h15.468c.578.001 1.045.47 1.046 1.047V25.26c-.001.577-.469 1.045-1.046 1.047H3.411zm-.607-21.73c-.117 0-.228-.046-.31-.128-.083-.083-.129-.194-.128-.311V2.263H.078V0h21.825v2.263h-1.978v1.875c0 .116-.046.228-.128.31-.082.083-.194.129-.31.129H2.804z" transform="translate(3)"/>
                    <path fill="#FFC71B" fill-opacity=".8" d="M19.95 6.865s4.318 5.5 5.288 7.562c1.075 2.29 1.782 8.973-5.16 8.973-7.92 0-6.268-6.778-5.136-9.04 1.528-2.587 3.197-5.088 5-7.491" transform="translate(3)"/>
                </g>
            </g>
        </g>
    </g>
</svg>
