<svg xmlns="http://www.w3.org/2000/svg" xmlns:xlink="http://www.w3.org/1999/xlink" width="32" height="32" viewBox="0 0 32 32">
    <defs>
        <path id="9ftg5avr5a" d="M0 0H32V32H0z"/>
    </defs>
    <g fill="none" fill-rule="evenodd">
        <g>
            <mask id="01a1bk903b" fill="#fff">
                <use xlink:href="#9ftg5avr5a"/>
            </mask>
            <g mask="url(#01a1bk903b)">
                <g>
                    <path fill="#3C77AE" d="M12.076 12.121c-2.28 0-3.833-1.666-3.833-4.522 0-2.856 1.557-4.523 3.833-4.523 1.172-.08 2.292.498 2.906 1.5l-1.366.99c-.266-.61-.876-.997-1.541-.977-.844.025-1.56.627-1.729 1.454h2.881v1.133h-2.98v.853h2.982v1.124h-2.882c.145.841.875 1.455 1.729 1.453.717.006 1.37-.412 1.666-1.065l1.365 1c-.64 1.047-1.806 1.655-3.031 1.578v.002zM17.9 8.154L23.723.399H5.967C2.672.399.001 3.069 0 6.364v2.984c0 3.295 2.672 5.966 5.967 5.966h20.881L17.9 8.154z" transform="translate(0 3)"/>
                    <path fill="#FFC71B" fill-opacity=".8" fill-rule="nonzero" d="M3.193 25.598l9.031-7.754-5.371-7.161h19.174c3.297 0 5.969 2.672 5.969 5.969l-.084 2.982c0 1.582-.628 3.099-1.747 4.218-1.119 1.118-2.636 1.746-4.218 1.746H3.193zm13.971-4.654c.628.742 1.525 1.204 2.494 1.286l-.031 1.068 1.322.04.033-1.113c1.262-.023 2.285-1.029 2.33-2.29.029-1.182-.727-1.865-2.34-2.285l.055-1.924c.464.108.88.363 1.188.727l1.082-.92c-.53-.623-1.279-1.017-2.092-1.1l.029-1.088-1.32-.04-.029 1.088c-1.5.134-2.324.92-2.363 2.142-.029 1.123.658 1.909 2.383 2.319l-.059 2.087c-.626-.112-1.194-.437-1.607-.92l-1.075.923zm3.77-1.83c.652.213.781.564.771.9-.008.471-.36.866-.826.93l.055-1.83zm-1.811-2.586c.016-.45.277-.757.875-.855l-.049 1.716c-.585-.178-.833-.416-.824-.861h-.002z" transform="translate(0 3)"/>
                </g>
            </g>
        </g>
    </g>
</svg>
