<svg xmlns="http://www.w3.org/2000/svg" xmlns:xlink="http://www.w3.org/1999/xlink" width="32" height="32" viewBox="0 0 32 32">
    <defs>
        <path id="pvcvafqexa" d="M0 0H32V32H0z"/>
    </defs>
    <g fill="none" fill-rule="evenodd">
        <g>
            <mask id="qc08wt15sb" fill="#fff">
                <use xlink:href="#pvcvafqexa"/>
            </mask>
            <g fill-rule="nonzero" mask="url(#qc08wt15sb)">
                <g>
                    <path fill="#3C77AE" d="M1.019 27.585c-.441-.138-.75-.538-.77-1v-9.68c.013-.1.073-.188.161-.237.089-.05.195-.054.287-.012l12.246 4.535 12.356-4.67c.093-.042.2-.037.288.013.09.05.15.138.162.239v9.764c-.02.466-.33.87-.776 1.01l-12.03 4.454-11.924-4.416zm11.414-7.075L.926 16.251c-.113-.03-.191-.133-.191-.25 0-.117.078-.22.191-.25l11.507-4.259c.33-.12.691-.12 1.021 0l11.51 4.259c.112.032.189.134.189.25 0 .116-.077.218-.189.25l-11.51 4.259c-.33.122-.692.122-1.021 0z" transform="translate(3)"/>
                    <path fill="#FFC71B" fill-opacity=".8" d="M13.056 9.771l12.246-4.533c.092-.042.199-.037.287.012.088.05.148.138.161.238v9.68c-.02.462-.329.862-.77 1l-11.925 4.415.001-10.812zM1.029 16.129c-.446-.14-.758-.543-.779-1.01V5.355c.013-.101.074-.19.163-.24.09-.05.197-.054.29-.012L13.057 9.77v10.812L1.029 16.129zm11.517-7.017L1.039 4.853c-.116-.028-.197-.131-.197-.25s.081-.222.197-.25L12.546.091c.33-.12.691-.12 1.021 0l11.508 4.262c.114.03.194.132.194.25s-.08.22-.194.25L13.567 9.112c-.33.122-.692.122-1.021 0z" transform="translate(3)"/>
                </g>
            </g>
        </g>
    </g>
</svg>
