<svg xmlns="http://www.w3.org/2000/svg" width="64" height="64" viewBox="0 0 64 64">
    <g fill="none" fill-rule="evenodd">
        <g>
            <g>
                <g>
                    <g>
                        <path fill="#3C77AE" d="M23.36 54.007C10.82 51.065 1.975 39.985 2.019 27.251V9.67C9.792 9.31 17.245 6.722 23.5 2.225c6.272 4.49 13.741 7.065 21.481 7.405v17.618c.001 1.197.017 2.461-.14 3.647-.072.546.318 1.046.87 1.117.553.071 1.06-.313 1.131-.859.169-1.272.158-2.623.158-3.906V8.637c0-.55-.452-.996-1.01-.996h-.908C37.748 7.328 30.627 4.875 24.653.59L24.1.19c-.352-.253-.827-.255-1.18-.005l-.566.398C16.377 4.891 9.255 7.36 1.873 7.682H1.01C.452 7.681 0 8.126 0 8.676v18.57C-.046 40.945 9.498 52.86 23.013 55.975c.075.017.152.026.23.026h.524c.078 0 .156-.009.232-.027 2.657-.618 4.917-1.322 7.311-2.618.489-.265.668-.87.4-1.353-.269-.482-.882-.658-1.37-.394-2.2 1.192-4.252 1.82-6.691 2.4h-.29z" transform="translate(-466 -646) translate(426 198) translate(0 432) translate(40 16)"/>
                        <path fill="#3C77AE" fill-rule="nonzero" d="M21 37.056v-.59c0-1.06.64-1.87 2.18-1.87s2.19.81 2.19 1.87v.59c0 1.05-.64 1.86-2.19 1.86-1.55 0-2.18-.81-2.18-1.86zm1.45-6.29l-1.16-7v-4.74c.426-.64 1.145-1.026 1.915-1.026s1.488.385 1.915 1.026v4.77l-1.13 7c-.11.333-.42.559-.77.559-.35 0-.662-.226-.77-.559v-.03z" transform="translate(-466 -646) translate(426 198) translate(0 432) translate(40 16)"/>
                        <path fill="#3C77AE" d="M23.443 44.987c-7.915-1.944-13.494-9.184-13.47-17.502V16.086c4.89-.29 9.565-1.967 13.527-4.842 3.964 2.878 8.657 4.56 13.527 4.844v11.394c.001 1.8-.363 4.096-.878 5.817-.16.532.134 1.094.655 1.257.52.162 1.072-.137 1.231-.668.573-1.913.966-4.407.965-6.407V15.1c0-.557-.442-1.007-.987-1.007h-.592c-4.65-.208-9.18-1.822-12.982-4.64l-.377-.271c-.344-.247-.804-.244-1.145.008l-.355.261c-3.802 2.821-8.333 4.435-13.026 4.642h-.55c-.544 0-.986.45-.986 1.006v12.382c-.027 9.29 6.235 17.374 15.103 19.492.073.017.149.026.224.026h.345c.075 0 .15-.009.223-.026 2.67-.632 5.18-1.831 7.366-3.52.434-.336.52-.967.19-1.41-.328-.443-.947-.53-1.381-.195-1.935 1.495-4.152 2.563-6.512 3.138h-.115z" transform="translate(-466 -646) translate(426 198) translate(0 432) translate(40 16)"/>
                        <path fill="#FFC71B" fill-rule="nonzero" d="M52.62 50.835C51.263 52.75 49.028 54 46.5 54c-4.142 0-7.5-3.358-7.5-7.5 0-4.142 3.358-7.5 7.5-7.5 2.173 0 4.13.924 5.5 2.4v-.43c0-.535.444-.97.992-.97s.993.435.993.97v5.054c.01.158.015.316.015.476 0 .16-.005.318-.015.476v1.316c-.002.993.41 1.948 1.15 2.654.743.711 1.757 1.112 2.815 1.112 1.922 0 3.566-1.386 3.973-3.19-.01-.08-.012-.16-.003-.243.427-3.923-.795-7.93-3.36-11.089-2.878-3.546-7.213-5.584-11.786-5.535-8.562 0-15.778 6.787-15.778 15C30.996 55.19 38.257 62 46.777 62c3.233.011 6.385-1.008 9.002-2.91.446-.324 1.07-.224 1.394.223.324.447.224 1.072-.222 1.396-2.96 2.151-6.525 3.304-10.177 3.291C37.183 64 29 56.325 29 47c0-9.346 8.137-17 17.763-16.999 5.17-.056 10.084 2.254 13.346 6.273 2.714 3.344 4.1 7.538 3.865 11.722.02.084.029.172.025.262C63.86 51.413 61.189 54 57.95 54c-1.575 0-3.087-.598-4.203-1.665-.462-.442-.841-.95-1.126-1.5zM46.5 52c3.037 0 5.5-2.462 5.5-5.5S49.537 41 46.5 41c-3.038 0-5.5 2.462-5.5 5.5s2.462 5.5 5.5 5.5z" transform="translate(-466 -646) translate(426 198) translate(0 432) translate(40 16)"/>
                    </g>
                </g>
            </g>
        </g>
    </g>
</svg>
