<svg xmlns="http://www.w3.org/2000/svg" width="64" height="64" viewBox="0 0 64 64">
    <g fill="none" fill-rule="evenodd">
        <g>
            <g>
                <g>
                    <g>
                        <path fill="#3C77AE" fill-rule="nonzero" d="M.374 30.992c.061-.058.129-.113.206-.17.141-.106.328-.229.587-.39.207-.127.448-.272.834-.5l.512-.304.574-.34c2.295-1.37 4.225-2.602 6.333-4.102.45-.32 1.074-.216 1.395.234.32.45.215 1.074-.235 1.395-2.158 1.537-4.131 2.796-6.47 4.19l-.577.344-.512.303c-.376.223-.609.363-.802.482-.083.051-.156.097-.219.138v28.574c.02.64.548 1.144 1.21 1.125h57.608c.634.019 1.162-.484 1.182-1.092V32.355l-8.542-5.515c-.464-.3-.598-.918-.298-1.382.3-.464.918-.598 1.382-.298l8.767 5.66c.401.131.691.512.691.961V60.911c-.056 1.754-1.504 3.132-3.21 3.083H3.238C1.504 64.043.056 62.664 0 60.878V31.781c0-.319.146-.603.374-.789z" transform="translate(-466 -310) translate(426 198) translate(0 96) translate(40 16)"/>
                        <path fill="#3C77AE" d="M11 39V3.079c0-.55.42-1.003.955-1.027H52.09c.49.024.91.477.91 1.026V39h2V3.079C55.002 1.432 53.739.075 52.135 0L11.91 0C10.261.075 8.998 1.432 9 3.08V39h2z" transform="translate(-466 -310) translate(426 198) translate(0 96) translate(40 16)"/>
                        <path fill="#3C77AE" fill-rule="nonzero" d="M22.468 44.116c.488.258.674.864.416 1.352-.259.488-.864.674-1.352.416l-17-9c-.488-.258-.674-.864-.416-1.352.259-.488.864-.674 1.352-.416l17 9zm36.064-9c.488-.258 1.093-.072 1.352.416.258.488.072 1.094-.416 1.352l-17 9c-.488.258-1.093.072-1.352-.416-.258-.488-.072-1.094.416-1.352l17-9z" transform="translate(-466 -310) translate(426 198) translate(0 96) translate(40 16)"/>
                        <path fill="#FFC71B" fill-rule="nonzero" d="M32 34c7.74 0 14-6.5 14-14.5S39.74 5 32 5s-14 6.5-14 14.5S24.26 34 32 34zm0-2c-6.619 0-12-5.588-12-12.5S25.381 7 32 7s12 5.588 12 12.5S38.619 32 32 32z" transform="translate(-466 -310) translate(426 198) translate(0 96) translate(40 16)"/>
                        <path fill="#FFC71B" d="M32 18.143l5.324-4.88c.407-.373 1.04-.346 1.413.061s.346 1.04-.061 1.413L33.48 19.5l5.196 4.763c.407.373.434 1.006.061 1.413-.373.407-1.006.434-1.413.061L32 20.857l-5.324 4.88c-.407.373-1.04.346-1.413-.061s-.346-1.04.061-1.413L30.52 19.5l-5.196-4.763c-.407-.373-.434-1.006-.061-1.413.373-.407 1.006-.434 1.413-.061L32 18.143z" transform="translate(-466 -310) translate(426 198) translate(0 96) translate(40 16)"/>
                        <path fill="#3C77AE" d="M2.646 62.745c14.55-11.893 23.941-19.549 28.172-22.967.69-.52 1.675-.52 2.389.02 4.206 3.399 13.616 11.055 28.203 22.948.428.349 1.058.285 1.407-.144.349-.428.284-1.057-.144-1.406-14.588-11.895-24-19.553-28.235-22.974-1.452-1.1-3.424-1.1-4.851-.02-4.26 3.442-13.654 11.1-28.206 22.994-.428.35-.491.98-.142 1.407.35.428.98.491 1.407.142z" transform="translate(-466 -310) translate(426 198) translate(0 96) translate(40 16)"/>
                    </g>
                </g>
            </g>
        </g>
    </g>
</svg>
