<svg xmlns="http://www.w3.org/2000/svg" width="64" height="64" viewBox="0 0 64 64">
    <g fill="none" fill-rule="evenodd">
        <g>
            <g>
                <g>
                    <g>
                        <path fill="#3C77AE" d="M1.7 30.71l5-4.97c.394-.393.4-1.035.014-1.436-.386-.4-1.02-.406-1.414-.014l-5 4.97c-.394.393-.4 1.035-.014 1.436.386.4 1.02.406 1.414.014zM57.3 25.74l5 4.97c.395.392 1.028.386 1.414-.014.387-.4.38-1.043-.014-1.435l-5-4.971c-.395-.392-1.028-.386-1.414.014-.387.4-.38 1.043.014 1.435z" transform="translate(-466 -534) translate(426 198) translate(0 320) translate(40 16)"/>
                        <path fill="#3C77AE" d="M7 33V3.131c.008-.29.143-.59.373-.807.23-.217.538-.333.855-.323H55.74c.349-.01.656.106.887.323.23.218.365.518.373.834V33h2V3.131c-.023-.875-.383-1.68-1.001-2.262-.618-.582-1.443-.894-2.291-.867H8.26c-.816-.027-1.64.285-2.259.867-.618.582-.978 1.387-1.001 2.236V33h2z" transform="translate(-466 -534) translate(426 198) translate(0 320) translate(40 16)"/>
                        <path fill="#3C77AE" d="M62 30.06v30.501c-.022.752-.565 1.337-1.18 1.317H3.21c-.645.02-1.188-.565-1.21-1.348V30.06C2 29.476 1.552 29 1 29s-1 .475-1 1.06v30.501c.055 1.953 1.487 3.494 3.24 3.437h57.55c1.723.057 3.155-1.484 3.21-3.405V30.06c0-.586-.448-1.061-1-1.061s-1 .475-1 1.06z" transform="translate(-466 -534) translate(426 198) translate(0 320) translate(40 16)"/>
                        <path fill="#3C77AE" d="M42.325 43.407c1.753 1.285 3.716 2.73 5.864 4.32l.303.223c3.326 2.461 6.872 5.098 10.405 7.734l3.411 2.549.954.714.338.253c.442.331.531.958.2 1.4-.331.442-.958.531-1.4.2l-.337-.252c-.38-.286-.594-.445-.953-.714l-3.41-2.547c-3.53-2.635-7.074-5.27-10.398-7.73L47 49.335c-6.555-4.847-11.387-8.367-13.71-9.967-.8-.487-1.78-.487-2.533-.03-2.37 1.63-7.202 5.15-13.757 9.997l-.302.224c-3.324 2.459-6.867 5.094-10.399 7.729L2.89 59.834l-.953.714-.337.252c-.442.331-1.069.242-1.4-.2-.331-.442-.242-1.069.2-1.4l.338-.253.954-.714c1.028-.77 2.175-1.626 3.411-2.549 3.533-2.636 7.079-5.273 10.405-7.734l.303-.224c2.147-1.588 4.11-3.033 5.864-4.319l-17.16-9.533c-.483-.268-.657-.877-.39-1.36.27-.482.878-.656 1.36-.388l17.969 9.981c2.742-1.999 4.852-3.51 6.216-4.448 1.438-.876 3.222-.876 4.707.03 1.337.92 3.434 2.424 6.17 4.418l17.967-9.981c.483-.268 1.092-.094 1.36.389.268.482.094 1.091-.388 1.36l-17.161 9.532z" transform="translate(-466 -534) translate(426 198) translate(0 320) translate(40 16)"/>
                        <g fill="#FFC71B" fill-rule="nonzero">
                            <path d="M14 29c7.74 0 14-6.5 14-14.5S21.74 0 14 0 0 6.5 0 14.5 6.26 29 14 29zm0-2C7.381 27 2 21.412 2 14.5S7.381 2 14 2s12 5.588 12 12.5S20.619 27 14 27z" transform="translate(-466 -534) translate(426 198) translate(0 320) translate(40 16) translate(18 5)"/>
                            <path d="M12 22.27v-.54c0-1 .58-1.73 2-1.73s2 .75 2 1.73v.54c0 1-.58 1.73-2 1.73s-2-.75-2-1.73zm1.2-4.82l-1.2-6.8V6c.474-.627 1.214-.997 2-1 .784.01 1.52.379 2 1v4.64l-1.18 6.8c-.122.312-.415.524-.75.54-.375.033-.727-.182-.87-.53z" transform="translate(-466 -534) translate(426 198) translate(0 320) translate(40 16) translate(18 5)"/>
                        </g>
                    </g>
                </g>
            </g>
        </g>
    </g>
</svg>
