<svg xmlns="http://www.w3.org/2000/svg" width="64" height="64" viewBox="0 0 64 64">
    <g fill="none" fill-rule="evenodd">
        <g>
            <g>
                <g>
                    <g>
                        <path fill="#3C77AE" d="M0 29.999c0-.26.1-.52.3-.715l5-4.9c.395-.387 1.028-.38 1.414.014.387.394.38 1.027-.014 1.414L2 30.418v30.309c.022.739.565 1.29 1.21 1.27l57.61.001c.615.019 1.158-.532 1.18-1.241V30.418l-4.7-4.606c-.394-.387-.4-1.02-.014-1.414.386-.395 1.02-.4 1.414-.014l5 4.9c.2.196.3.455.3.715v30.788c-.054 1.811-1.487 3.264-3.21 3.21H3.24c-1.753.054-3.185-1.399-3.24-3.24V29.999zM25.34 7.711c2.274-2.232 4.132-4.03 5.405-5.224.706-.652 1.804-.652 2.517.006 1.266 1.189 3.124 2.986 5.397 5.218.395.387 1.028.382 1.415-.013.387-.394.38-1.027-.013-1.414-2.284-2.242-4.151-4.048-5.436-5.255-1.485-1.371-3.765-1.371-5.243-.006-1.292 1.213-3.16 3.02-5.443 5.261-.394.387-.4 1.02-.013 1.414.387.395 1.02.4 1.415.013z" transform="translate(-466 -422) translate(426 198) translate(0 208) translate(40 16)"/>
                        <path fill="#3C77AE" d="M7.376 8.185c.213-.163.481-.234.746-.197l.138.01h47.48l.138-.01c.265-.037.533.034.746.197.198.152.332.372.376.617v24.196h2V8.728l-.008-.126c-.1-.795-.516-1.518-1.153-2.005-.616-.473-1.391-.686-2.161-.6H8.322c-.77-.086-1.545.127-2.161.6-.637.487-1.052 1.21-1.153 2.005L5 8.728v24.27h2V8.802c.044-.245.178-.465.376-.617z" transform="translate(-466 -422) translate(426 198) translate(0 208) translate(40 16)"/>
                        <path fill="#FFC71B" fill-rule="nonzero" d="M5 16.686l2 .004c0 .45.298.844.725.963 3.1.851 10.404 3.048 19.502 5.833l-.586 1.912c-9.073-2.777-16.373-4.973-19.451-5.817-1.297-.364-2.193-1.548-2.19-2.895zm32.403 8.75l-.57-1.917 19.452-5.78c.425-.126.716-.517.715-.96l2-.003c.002 1.33-.87 2.502-2.145 2.88l-19.452 5.78z" transform="translate(-466 -422) translate(426 198) translate(0 208) translate(40 16)"/>
                        <path fill="#FFC71B" fill-rule="nonzero" d="M28 29.998c-1.105 0-2-.896-2-2v-6c0-1.105.895-2 2-2h8c1.105 0 2 .895 2 2v6c0 1.104-.895 2-2 2v7h-2v-7h-4v7h-2v-7zm0-2h8v-6h-8v6z" transform="translate(-466 -422) translate(426 198) translate(0 208) translate(40 16)"/>
                        <path fill="#3C77AE" d="M43.305 42.438c1.5 1.151 3.138 2.414 4.901 3.777l.309.238c3.325 2.572 6.87 5.328 10.401 8.083l3.41 2.664.954.746.337.265c.435.34.51.969.17 1.404-.34.434-.97.51-1.404.17l-.337-.264-.952-.746-3.408-2.662c-3.53-2.754-7.072-5.508-10.395-8.078l-.308-.238c-6.555-5.067-11.386-8.745-13.721-10.423-.766-.502-1.758-.502-2.489-.024-2.37 1.702-7.201 5.38-13.756 10.447l-.308.238c-3.323 2.57-6.865 5.324-10.395 8.078l-3.407 2.662-.953.746-.337.264c-.435.34-1.063.264-1.404-.17-.34-.435-.264-1.064.17-1.404l.338-.265.953-.746c1.028-.804 2.174-1.7 3.41-2.664 3.532-2.755 7.076-5.51 10.401-8.083l.309-.238c1.762-1.363 3.4-2.625 4.901-3.777L4.532 33.882c-.488-.259-.674-.864-.416-1.352.259-.488.864-.674 1.352-.416L22.442 41.1c3.228-2.466 5.683-4.31 7.2-5.398 1.432-.94 3.285-.94 4.751.024 1.495 1.073 3.94 2.91 7.165 5.374l16.974-8.986c.488-.258 1.093-.072 1.352.416.258.488.072 1.093-.416 1.352l-16.163 8.556z" transform="translate(-466 -422) translate(426 198) translate(0 208) translate(40 16)"/>
                    </g>
                </g>
            </g>
        </g>
    </g>
</svg>
