<svg xmlns="http://www.w3.org/2000/svg" width="267.998" height="25" viewBox="0 0 267.998 25">
    <defs>
        <linearGradient id="9qsd4y5o1a" x1=".5" x2=".5" y2="1.081" gradientUnits="objectBoundingBox">
            <stop offset="0" stop-color="#e6b318"/>
            <stop offset="1" stop-color="#ffa912"/>
        </linearGradient>
    </defs>
    <g stroke="rgba(0,0,0,0)" stroke-miterlimit="10">
        <path fill="url(#9qsd4y5o1a)" d="M8450.087 6997a12 12 0 1 1 12 12 12.013 12.013 0 0 1-12-12zm2.926 0a9.073 9.073 0 1 0 9.073-9.073 9.085 9.085 0 0 0-9.073 9.073zm-15.757 12v-19.61a1.466 1.466 0 0 0-1.463-1.463h-6.437V6985h6.438a4.381 4.381 0 0 0 5.853 0h6.439v2.926h-6.439a1.464 1.464 0 0 0-1.461 1.463V7009zm-25.669 0v-9.075a4.393 4.393 0 0 1 4.39-4.39h4.683a1.466 1.466 0 0 0 1.463-1.463v-4.683a1.466 1.466 0 0 0-1.463-1.463h-9.072V6985h9.072a4.395 4.395 0 0 1 4.39 4.39v4.683a4.395 4.395 0 0 1-4.39 4.389h-4.683a1.467 1.467 0 0 0-1.466 1.463V7009zm-14.417 0v-13.386a3.486 3.486 0 0 1-1.679-1.626l-4.636-8.847h3.3l3.937 7.514a.642.642 0 0 0 .207.249h.664a.586.586 0 0 0 .188-.223l3.588-7.54h3.24l-4.2 8.822a3.534 3.534 0 0 1-1.691 1.651V7009zm-24.083 0v-9.075a4.393 4.393 0 0 1 4.39-4.39h4.683a1.466 1.466 0 0 0 1.463-1.463v-4.683a1.466 1.466 0 0 0-1.463-1.463h-9.072V6985h9.072a4.395 4.395 0 0 1 4.39 4.39v4.683a4.395 4.395 0 0 1-4.39 4.389h-.013l4.993 10.372h-3.249l-4.994-10.372h-1.42a1.467 1.467 0 0 0-1.466 1.463V7009zm-7.087 0a12 12 0 0 1 0-24h1.464v2.926H8366a9.074 9.074 0 0 0 0 18.147h1.464V7009z" transform="translate(.649 .5) translate(-8207.238 -6985)"/>
        <path fill="#fff" d="M8478.081 7008.308l-5.277-23.451h5.655l3.2 16.4 8.977-16.4h5.522l-13.548 23.451zm-18.742 0l4.135-23.451h5.16l-4.135 23.451zm-10.077 0l-5.614-12.06h3.89c2.512 0 4.189-1.341 4.537-3.318l.011-.066c.393-2.211-.949-3.35-3.463-3.35h-5.123l-3.315 18.794h-5.158l4.135-23.451h10.721c2.981 0 5.146.838 6.414 2.379a6.431 6.431 0 0 1 1.066 5.358l-.013.068a9.134 9.134 0 0 1-6.308 7.269l4.254 8.375zm-36.855 0l4.134-23.451h17.859l-.808 4.591h-12.729l-.838 4.757h8.106l-.811 4.589h-8.106l-.87 4.925h12.729l-.808 4.589zm-26.345 0l4.135-23.451h9.146c7.371 0 11.569 5.058 10.407 11.659l-.013.066a14.549 14.549 0 0 1-14.529 11.726zm5.981-4.657h3.987a8.266 8.266 0 0 0 8.3-7l.011-.066c.733-4.153-1.6-7.068-5.823-7.068h-3.985zm-38.043 4.657l.007-.026 14.4-11.7-9-11.7.007-.025h10.337a9.116 9.116 0 0 1 8.883 11.167l-1.2 5.218a9.117 9.117 0 0 1-8.883 7.066z" transform="translate(.649 .5) translate(-8353.999 -6984.715)"/>
    </g>
</svg>
