<svg xmlns="http://www.w3.org/2000/svg" width="258" height="24" viewBox="0 0 258 24">
    <defs>
        <linearGradient id="hrm01w6l7a" x1="50%" x2="50%" y1="0%" y2="108.1%">
            <stop offset="0%" stop-color="#E6B318"/>
            <stop offset="100%" stop-color="#FFA912"/>
        </linearGradient>
    </defs>
    <g fill="none" fill-rule="evenodd">
        <g fill-rule="nonzero">
            <g>
                <path fill="url(#hrm01w6l7a)" d="M233.504 12c0-6.362 5.152-11.52 11.507-11.52 6.356 0 11.508 5.158 11.508 11.52 0 6.362-5.152 11.52-11.508 11.52-6.352-.007-11.5-5.16-11.507-11.52zm2.806 0c0 4.81 3.895 8.71 8.7 8.71s8.7-3.9 8.7-8.71c0-4.81-3.895-8.71-8.7-8.71-4.802.006-8.694 3.902-8.7 8.71zM221.2 23.52V4.694c-.002-.775-.63-1.402-1.404-1.404h-6.172V.48h6.173c1.597 1.435 4.017 1.435 5.613 0h6.175v2.809h-6.175c-.774.002-1.4.63-1.4 1.404V23.52h-2.81zm-24.616 0v-8.712c.001-2.327 1.885-4.213 4.21-4.214h4.49c.775-.002 1.402-.63 1.403-1.405V4.693c-.001-.775-.628-1.402-1.402-1.404h-8.7V.48h8.7c2.323.003 4.207 1.888 4.21 4.214V9.19c-.004 2.326-1.887 4.21-4.21 4.214h-4.491c-.775 0-1.404.628-1.406 1.404v8.712h-2.804zm-13.825 0V10.67c-.7-.32-1.27-.871-1.61-1.562L176.703.615h3.164l3.776 7.214c.044.095.113.177.198.239h.637c.077-.055.14-.129.18-.214L188.1.615h3.107l-4.028 8.47c-.342.698-.915 1.258-1.621 1.584V23.52h-2.798zm-23.095 0v-8.712c.002-2.327 1.886-4.213 4.21-4.214h4.49c.775-.002 1.402-.63 1.404-1.405V4.693c-.002-.775-.63-1.402-1.403-1.404h-8.7V.48h8.7c2.324.003 4.207 1.888 4.21 4.214V9.19c-.004 2.326-1.887 4.21-4.21 4.214h-.013l4.788 9.957h-3.115l-4.79-9.957h-1.361c-.775 0-1.404.628-1.406 1.404v8.712h-2.804zm-6.796 0c-6.355 0-11.507-5.158-11.507-11.52 0-6.362 5.152-11.52 11.507-11.52h1.404v2.809h-1.404c-4.77.05-8.61 3.935-8.61 8.71 0 4.776 3.84 8.661 8.61 8.711h1.404v2.81h-1.404z" transform="translate(1)"/>
                <path fill="#0E0E0E" stroke="#000" stroke-opacity="0" d="M119.611 23.13L114.551.615h5.423l3.069 15.744L131.65.616h5.295L123.955 23.13h-4.344zm-17.972 0L105.604.615h4.948l-3.965 22.513h-4.948zm-9.664 0l-5.383-11.578h3.73c2.409 0 4.017-1.288 4.35-3.186l.011-.063c.377-2.123-.91-3.216-3.32-3.216H86.45l-3.18 18.042h-4.945L82.29.616h10.28c2.86 0 4.936.805 6.152 2.284 1.087 1.477 1.462 3.362 1.022 5.144l-.013.065c-.53 3.287-2.872 5.99-6.049 6.978l4.08 8.04-5.787.002zm-35.342 0L60.597.615h17.126l-.775 4.408H64.742l-.804 4.566h7.774l-.778 4.406H63.16l-.835 4.728h12.207l-.775 4.405H56.633zm-25.264 0L35.335.615h8.77c7.069 0 11.094 4.856 9.98 11.193l-.012.063c-1.31 6.634-7.18 11.376-13.933 11.257h-8.77zm5.736-4.471h3.823c3.957.063 7.354-2.806 7.96-6.72l.01-.064c.703-3.987-1.534-6.785-5.584-6.785h-3.821l-2.388 13.569zM.623 23.129l.007-.025 13.809-11.232L5.809.64l.006-.024h9.913c2.664 0 5.183 1.216 6.842 3.304 1.658 2.087 2.276 4.818 1.676 7.417l-1.15 5.009c-.916 3.97-4.448 6.783-8.519 6.783H.623z" transform="translate(1)"/>
            </g>
        </g>
    </g>
</svg>
